<?xml version="1.0" standalone="no"?>
<!DOCTYPE svg PUBLIC "-//W3C//DTD SVG 20010904//EN"
 "http://www.w3.org/TR/2001/REC-SVG-20010904/DTD/svg10.dtd">
<svg version="1.0" 
 width="1em" height="1em" viewBox="0 0 80.000000 64.000000"
 preserveAspectRatio="xMidYMid meet">
<metadata>
Created by potrace 1.16, written by Peter Selinger 2001-2019
</metadata>
<g transform="translate(0.000000,64.000000) scale(0.100000,-0.100000)"
fill="#000000" stroke="none">
<path d="M282 618 c-91 -44 -162 -158 -162 -260 0 -37 -1 -38 -38 -38 -21 0
-48 -7 -60 -16 -21 -14 -22 -23 -22 -130 0 -144 7 -154 105 -154 l65 0 0 198
c0 177 3 202 21 242 27 60 54 88 114 116 114 54 248 6 304 -109 19 -40 21 -61
21 -245 l0 -202 63 0 c102 0 107 7 107 150 0 111 -1 120 -22 134 -12 9 -39 16
-60 16 l-38 0 0 45 c0 101 -68 208 -162 253 -61 30 -175 30 -236 0z"/>
<path d="M190 187 c0 -140 2 -156 18 -161 77 -21 196 -28 284 -16 51 7 98 15
105 17 10 4 13 44 13 160 0 142 -1 154 -17 149 -10 -2 -58 -10 -106 -16 -83
-12 -183 -5 -274 17 l-23 5 0 -155z m168 76 c21 -5 22 -10 22 -110 l0 -105
-42 7 c-24 3 -55 8 -70 11 l-28 6 0 105 0 105 48 -7 c26 -3 57 -9 70 -12z
m212 -87 l0 -104 -42 -7 c-24 -3 -58 -9 -75 -12 l-33 -5 0 105 0 106 38 6 c20
4 42 8 47 10 6 2 22 4 38 4 l27 1 0 -104z"/>
</g>
</svg>
