<svg xmlns="http://www.w3.org/2000/svg" xmlns:xlink="http://www.w3.org/1999/xlink" viewBox="0 0 121.24 99.09"><defs><style>.cls-1{isolation:isolate;}.cls-2{fill:url(#linear-gradient);}.cls-3{fill:url(#linear-gradient-2);}.cls-4{opacity:0.6;}.cls-11,.cls-5,.cls-9{fill:#fff;}.cls-6,.cls-7{opacity:0.4;mix-blend-mode:overlay;}.cls-6{fill:url(#linear-gradient-3);}.cls-7{fill:url(#linear-gradient-4);}.cls-8{fill:#f7931e;opacity:0.7;mix-blend-mode:color-dodge;}.cls-10,.cls-9{opacity:0.8;}.cls-11{opacity:0.2;}</style><linearGradient id="linear-gradient" x1="64.96" y1="150.74" x2="57.06" y2="-5.28" gradientUnits="userSpaceOnUse"><stop offset="0" stop-color="#fcee21"/><stop offset="0.38" stop-color="#90f4e1"/><stop offset="1" stop-color="#069efc"/></linearGradient><linearGradient id="linear-gradient-2" x1="-117.2" y1="1.52" x2="180.89" y2="82.66" xlink:href="#linear-gradient"/><linearGradient id="linear-gradient-3" x1="-18.9" y1="104.25" x2="112.94" y2="15.52" gradientUnits="userSpaceOnUse"><stop offset="0" stop-color="#fff"/><stop offset="1" stop-color="#15b3ff"/></linearGradient><linearGradient id="linear-gradient-4" x1="69.15" y1="-9.41" x2="54.11" y2="119.54" xlink:href="#linear-gradient-3"/></defs><title>credit card</title><g class="cls-1"><g id="Layer_2" data-name="Layer 2"><g id="Layer_2-2" data-name="Layer 2"><path class="cls-2" d="M113.31.06c3.48-.49,6.31,2.17,6.31,5.94l-.13,69.08a7.87,7.87,0,0,1-6.34,7.73L6.32,97.82C2.82,98.31,0,95.65,0,91.88L.13,22.8a7.87,7.87,0,0,1,6.34-7.73Z"/><path class="cls-3" d="M114.93,1.26c3.49-.49,6.32,2.18,6.31,6l-.13,69.08A7.86,7.86,0,0,1,114.78,84L7.94,99c-3.5.49-6.32-2.17-6.32-6L1.75,24A7.86,7.86,0,0,1,8.1,16.28Z"/><g class="cls-4"><path class="cls-5" d="M46.15,23.08v1l-1.86.26a1.09,1.09,0,0,0-.74.4,1.11,1.11,0,0,0-.28.73v5.26a.82.82,0,0,0,1,.85l1.87-.26v1l-1.73.24a2,2,0,0,1-1.63-.32,2,2,0,0,1-.57-1.61V25.89a2.33,2.33,0,0,1,2.21-2.56Z"/><path class="cls-5" d="M51.64,27.5l1.69,3.82-1.16.16-1.58-3.6-1.19.17v3.82L48.33,32l0-9.24,2.29-.33a2.08,2.08,0,0,1,1.58.28,1.79,1.79,0,0,1,.53,1.49v1.27A2,2,0,0,1,51.64,27.5Zm-.86-.64a1,1,0,0,0,.68-.33,1.14,1.14,0,0,0,.22-.77V24.25a.85.85,0,0,0-.22-.69.79.79,0,0,0-.67-.14l-1.38.2v3.44l1.38-.2"/><polygon class="cls-5" points="59.45 21.22 59.44 22.18 56.42 22.6 56.42 25.63 59.13 25.25 59.13 26.21 56.42 26.59 56.41 29.93 59.43 29.5 59.43 30.46 55.34 31.04 55.36 21.79 59.45 21.22"/><path class="cls-5" d="M65.75,20.82a1.72,1.72,0,0,1,.56,1.49v5.11a2.47,2.47,0,0,1-.49,1.67,2.57,2.57,0,0,1-1.6.7l-2.51.35V20.9l2.37-.34A2.25,2.25,0,0,1,65.75,20.82Zm-.52,6.87V22.34a.88.88,0,0,0-.24-.66.77.77,0,0,0-.64-.16l-1.58.22,0,7.26,1.56-.22a1,1,0,0,0,.69-.32,1.16,1.16,0,0,0,.22-.77"/><polygon class="cls-5" points="72.25 19.42 72.25 20.38 71.15 20.53 71.14 27.86 72.24 27.7 72.24 28.66 68.97 29.12 68.97 28.16 70.07 28 70.08 20.68 68.98 20.84 68.98 19.88 72.25 19.42"/><polygon class="cls-5" points="79.71 18.37 79.71 19.37 77.76 19.64 77.74 27.89 76.68 28.04 76.69 19.79 74.75 20.07 74.75 19.07 79.71 18.37"/><path class="cls-5" d="M92.42,16.58v1l-1.86.26a1.21,1.21,0,0,0-.74.4,1.15,1.15,0,0,0-.27.74v5.26a.85.85,0,0,0,.27.66.9.9,0,0,0,.73.19l1.87-.26v1l-1.74.24A2,2,0,0,1,89,25.75a2,2,0,0,1-.57-1.61V19.38a2.33,2.33,0,0,1,2.21-2.55Z"/><path class="cls-5" d="M97.78,15.83l2,9-1.09.15-.46-2.27L95.86,23l-.48,2.41-1.09.15L96.38,16ZM96.06,22l2-.28-1-4.9-1,5.18"/><path class="cls-5" d="M104.52,20.07l1.69,3.82-1.16.16-1.57-3.6-1.2.16v3.83l-1.07.15,0-9.25,2.29-.32a2.08,2.08,0,0,1,1.58.27,1.83,1.83,0,0,1,.53,1.5v1.26A2,2,0,0,1,104.52,20.07Zm-.86-.64a1,1,0,0,0,.68-.33,1.14,1.14,0,0,0,.22-.77V16.82a.93.93,0,0,0-.22-.7.82.82,0,0,0-.68-.13l-1.38.19v3.44l1.38-.19"/><path class="cls-5" d="M112,14.31a1.75,1.75,0,0,1,.56,1.5v5.1a2.5,2.5,0,0,1-.49,1.68,2.57,2.57,0,0,1-1.6.7l-2.51.35V14.39l2.37-.33A2.3,2.3,0,0,1,112,14.31Zm-.51,6.88V15.84a.87.87,0,0,0-.25-.66.81.81,0,0,0-.64-.17l-1.58.23,0,7.26,1.57-.22a1,1,0,0,0,.68-.33,1.11,1.11,0,0,0,.23-.76"/></g><path class="cls-6" d="M119.06,81.59A6.9,6.9,0,0,1,114.78,84L7.94,99c-3.5.49-6.33-2.18-6.31-6L1.75,24a8.18,8.18,0,0,1,2.79-6,8.11,8.11,0,0,0-2,5.3L2.37,92.33c0,3.78,2.83,6.43,6.33,5.94l106.82-15A6.68,6.68,0,0,0,119.06,81.59Z"/><path class="cls-7" d="M121.24,7.22l-.12,69.08a8.22,8.22,0,0,1-2.81,6A8.19,8.19,0,0,0,120.42,77l.12-69.08c0-3.77-2.81-6.42-6.31-5.93L7.41,17a6.65,6.65,0,0,0-3.53,1.68A6.88,6.88,0,0,1,8.1,16.29l106.83-15C118.41.77,121.25,3.43,121.24,7.22Z"/><path class="cls-8" d="M37.28,36l-18,2.53a3.81,3.81,0,0,0-3.06,3.72l0,15.84a2.71,2.71,0,0,0,3,2.87l18-2.53a3.79,3.79,0,0,0,3.07-3.73l0-15.84A2.69,2.69,0,0,0,37.28,36Z"/><path class="cls-9" d="M105.58,65.83c-3.26.45-5.91,3.9-5.91,7.68s2.62,6.49,5.88,6,5.91-3.9,5.91-7.68S108.84,65.37,105.58,65.83Z"/><g class="cls-10"><path class="cls-5" d="M101.32,56.92V55.3a.77.77,0,0,0-.21-.58.48.48,0,0,0-.48-.19l-2.48.35-.24.16a.52.52,0,0,0-.11.32.4.4,0,0,0,.11.29l.24.1,2.47-.35v1.66a.51.51,0,0,1-.1.32l-.25.17-1.4.19-.24.17a.52.52,0,0,0-.11.32.39.39,0,0,0,.11.28l.24.1,1.4-.2.24.1a.4.4,0,0,1,.11.29v1.69l-2.45.34-.25.16a.63.63,0,0,0-.1.32.39.39,0,0,0,.1.29l.25.1,2.44-.35a.7.7,0,0,0,.5-.32,1,1,0,0,0,.21-.64V58.7a1.26,1.26,0,0,0-.29-.83A1.58,1.58,0,0,0,101.32,56.92Z"/><path class="cls-5" d="M24.08,65.29l-2.48.35-.25.16a.58.58,0,0,0-.1.32.39.39,0,0,0,.1.29l.25.09,2.48-.34v2.1L22,68.55a.68.68,0,0,0-.48.33,1,1,0,0,0-.21.65v3l3.15-.45.25-.16a.51.51,0,0,0,.1-.32.39.39,0,0,0-.1-.29l-.25-.09L22,71.54V69.43l2.11-.3a.74.74,0,0,0,.49-.32,1.1,1.1,0,0,0,.21-.65v-2.1a.79.79,0,0,0-.2-.58A.52.52,0,0,0,24.08,65.29Z"/><path class="cls-5" d="M75.8,60.5V58.89a.79.79,0,0,0-.2-.58.49.49,0,0,0-.49-.19l-2.48.34-.24.17a.57.57,0,0,0-.09.32.48.48,0,0,0,.09.29l.24.09L75.11,59v1.67A.58.58,0,0,1,75,61l-.25.16-1.4.2-.24.16a.46.46,0,0,0-.11.32.36.36,0,0,0,.11.29l.23.1,1.41-.2.23.09a.44.44,0,0,1,.11.29v1.69l-2.45.35-.25.16a.57.57,0,0,0-.09.32.44.44,0,0,0,.09.29l.25.09,2.45-.34a.74.74,0,0,0,.5-.33,1.09,1.09,0,0,0,.21-.64V62.29a1.31,1.31,0,0,0-.29-.83A1.58,1.58,0,0,0,75.8,60.5Z"/><path class="cls-5" d="M80.2,57.4l-2.46.35-.25.16a.51.51,0,0,0-.1.32.39.39,0,0,0,.1.29l.25.09,2.46-.34v2.1l-2.1.29a.7.7,0,0,0-.49.33,1,1,0,0,0-.2.65v3l3.15-.45.24-.16a.46.46,0,0,0,.11-.32.36.36,0,0,0-.11-.29l-.24-.09-2.45.34V61.54l2.1-.29a.81.81,0,0,0,.5-.33,1.09,1.09,0,0,0,.2-.65v-2.1a.79.79,0,0,0-.21-.58A.52.52,0,0,0,80.2,57.4Z"/><path class="cls-5" d="M49.58,61.7l-2.46.35-.25.16a.55.55,0,0,0-.1.32.39.39,0,0,0,.1.29l.25.1,2.46-.35v2.1l-2.1.29a.73.73,0,0,0-.49.33,1.1,1.1,0,0,0-.21.65v3l3.15-.44.25-.17a.58.58,0,0,0,.1-.32.43.43,0,0,0-.1-.29l-.25-.09L47.48,68V65.84l2.1-.29a.79.79,0,0,0,.5-.33,1,1,0,0,0,.2-.65v-2.1a.83.83,0,0,0-.21-.58A.56.56,0,0,0,49.58,61.7Z"/><path class="cls-5" d="M95.52,55.25,93,55.6l-.25.16a.57.57,0,0,0-.09.32.44.44,0,0,0,.09.29l.25.09,2.48-.34v2.09l-2.11.3a.72.72,0,0,0-.49.33,1.05,1.05,0,0,0-.21.65v3L95.86,62l.25-.16a.57.57,0,0,0,.09-.32.44.44,0,0,0-.09-.29l-.25-.09-2.46.34V59.39l2.1-.3a.71.71,0,0,0,.49-.32,1.1,1.1,0,0,0,.21-.65V56a.79.79,0,0,0-.2-.58A.5.5,0,0,0,95.52,55.25Z"/><path class="cls-5" d="M106.05,57.5l-.25.16-.1.32v1.79l-.7.1v-6l-1.73.25-.25.16a.51.51,0,0,0-.1.32.39.39,0,0,0,.1.29l.24.1,1-.15V60l-1.07.15-.24.16-.1.31a.44.44,0,0,0,.1.3l.24.09,2.8-.39.24-.16a.46.46,0,0,0,.11-.32V57.88a.36.36,0,0,0-.11-.29Z"/><path class="cls-5" d="M111.39,56.87l-.23-.09-.25.16-.1.32v1.79l-.69.1V53.2l-1.74.24-.25.16a.63.63,0,0,0-.1.32.44.44,0,0,0,.1.29l.25.1,1-.15v5.09l-1.06.15-.25.16-.1.31a.44.44,0,0,0,.1.3l.25.1,2.8-.4.24-.16a.58.58,0,0,0,.1-.32V57.16A.43.43,0,0,0,111.39,56.87Z"/><path class="cls-5" d="M44.81,66.1l-.25.17-.1.32v1.79l-.7.1v-6L42,62.77l-.25.16a.57.57,0,0,0-.09.32.39.39,0,0,0,.09.29l.25.09,1.06-.15v5.09L42,68.72l-.25.17-.1.3a.55.55,0,0,0,.1.31l.25.09,2.79-.39.25-.17a.5.5,0,0,0,.1-.31V66.49a.44.44,0,0,0-.09-.29Z"/><path class="cls-5" d="M19.29,69.69l-.25.16-.1.32V72l-.7.09,0-6-1.74.24-.24.16a.5.5,0,0,0-.11.32.36.36,0,0,0,.11.29l.24.1,1.05-.15v5.09l-1.06.15-.25.16-.1.31a.49.49,0,0,0,.09.3l.25.1,2.8-.4.25-.16a.57.57,0,0,0,.09-.32V70.07a.43.43,0,0,0-.1-.29Z"/><path class="cls-5" d="M85.63,60.37l-.24.16-.1.32v1.79l-.7.1v-6L82.87,57l-.25.16a.51.51,0,0,0-.1.32.44.44,0,0,0,.09.29l.25.09,1-.14v5.09L82.83,63l-.25.16-.1.31a.54.54,0,0,0,.1.3l.25.09,2.79-.39.25-.16A.51.51,0,0,0,86,63V60.75a.44.44,0,0,0-.1-.29Z"/><path class="cls-5" d="M70.16,62.53V60a.49.49,0,0,0-.1-.3l-.25-.09-.24.16a.51.51,0,0,0-.1.32v2.53l-1.39.2V59.54a.4.4,0,0,0-.11-.3l-.23-.1-.25.16a.62.62,0,0,0-.11.34V63.8l2.09-.3v1.8a.41.41,0,0,0,.1.29l.24.09.25-.16a.58.58,0,0,0,.1-.32V63.4l.25-.17a.58.58,0,0,0,.1-.32.41.41,0,0,0-.1-.29Z"/><path class="cls-5" d="M60,64V61.43a.4.4,0,0,0-.11-.29l-.24-.1-.25.17a.51.51,0,0,0-.1.32v2.53l-1.39.19V61a.44.44,0,0,0-.1-.3l-.25-.09-.25.16a.63.63,0,0,0-.09.33v4.16l2.08-.29v1.79a.39.39,0,0,0,.1.29l.25.1.24-.17a.52.52,0,0,0,.11-.32v-1.8l.24-.16a.56.56,0,0,0,.11-.32.36.36,0,0,0-.11-.29Z"/><path class="cls-5" d="M55.39,63.37V61.75a.82.82,0,0,0-.2-.58A.51.51,0,0,0,54.7,61l-2.48.34L52,61.5a.52.52,0,0,0-.11.32.44.44,0,0,0,.11.29l.24.09,2.48-.35v1.67a.59.59,0,0,1-.09.32l-.25.16-1.41.2-.25.16a.57.57,0,0,0-.09.32.44.44,0,0,0,.09.29l.25.09,1.39-.19.25.09a.43.43,0,0,1,.1.29v1.69l-2.45.35-.24.16a.57.57,0,0,0-.09.32.46.46,0,0,0,.09.29l.24.09,2.46-.34a.74.74,0,0,0,.5-.33,1.08,1.08,0,0,0,.2-.64V65.15a1.3,1.3,0,0,0-.29-.82A1.65,1.65,0,0,0,55.39,63.37Z"/><path class="cls-5" d="M34.44,67.55V65a.36.36,0,0,0-.11-.29l-.24-.1-.25.16a.63.63,0,0,0-.1.32v2.54l-1.39.19V64.56a.47.47,0,0,0-.09-.31L32,64.16l-.25.17a.56.56,0,0,0-.1.33v4.16l2.09-.3v1.8a.44.44,0,0,0,.1.29l.25.09.24-.16a.46.46,0,0,0,.11-.32V68.41l.24-.16a.52.52,0,0,0,.11-.32.44.44,0,0,0-.11-.29Z"/><path class="cls-5" d="M29.87,67V65.34a.81.81,0,0,0-.21-.58.49.49,0,0,0-.49-.19l-2.47.35-.24.16a.46.46,0,0,0-.11.32.36.36,0,0,0,.11.29l.23.1,2.48-.35V67.1a.51.51,0,0,1-.1.32l-.25.17-1.4.19-.25.17a.51.51,0,0,0-.1.32.43.43,0,0,0,.1.29l.25.09,1.39-.19.25.09a.44.44,0,0,1,.09.29v1.69l-2.44.34-.24.16a.55.55,0,0,0-.1.32.39.39,0,0,0,.1.29l.24.1,2.45-.35a.7.7,0,0,0,.5-.32,1.14,1.14,0,0,0,.21-.64V68.74a1.33,1.33,0,0,0-.29-.83A1.64,1.64,0,0,0,29.87,67Z"/></g><path class="cls-11" d="M103.59,2.86,26.54,96.41,7.94,99c-3.5.49-6.32-2.17-6.32-6L1.75,24a7.85,7.85,0,0,1,6.34-7.72Z"/></g></g></g></svg>