<svg xmlns="http://www.w3.org/2000/svg" xmlns:xlink="http://www.w3.org/1999/xlink" viewBox="0 0 40.34 42.48"><defs><style>.cls-1{fill:url(#linear-gradient);}.cls-2{fill:url(#radial-gradient);}.cls-3{fill:#fff;}</style><linearGradient id="linear-gradient" x1="13.9" y1="74.23" x2="24.78" y2="-44.68" gradientUnits="userSpaceOnUse"><stop offset="0" stop-color="#fcee21"/><stop offset="0.51" stop-color="#90f4e1"/><stop offset="1" stop-color="#069efc"/></linearGradient><radialGradient id="radial-gradient" cx="24.39" cy="41.97" r="166.8" gradientUnits="userSpaceOnUse"><stop offset="0" stop-color="#fcee21"/><stop offset="0.12" stop-color="#aad36a"/><stop offset="0.25" stop-color="#53b7b8"/><stop offset="0.35" stop-color="#1ba5e9"/><stop offset="0.39" stop-color="#069efc"/><stop offset="0.49" stop-color="#90f4e1"/></radialGradient></defs><title>green check mark</title><g id="Layer_2" data-name="Layer 2"><g id="green_check_mark" data-name="green check mark"><path class="cls-1" d="M18.86.17c10.39-1.46,18.8,6.45,18.78,17.67s-8.47,21.49-18.86,23S0,34.34,0,23.13,8.47,1.63,18.86.17Z"/><path class="cls-2" d="M21.56,1.69C31.94.23,40.36,8.13,40.34,19.36S31.87,40.84,21.48,42.3,2.68,35.86,2.7,24.65,11.17,3.15,21.56,1.69Z"/><path class="cls-3" d="M32.48,11.48A1.83,1.83,0,0,1,34.1,12a2.52,2.52,0,0,1-.16,3.34L19.07,32,9.34,26.19A2.33,2.33,0,0,1,8.76,23a2.58,2.58,0,0,1,1.81-1.28,1.86,1.86,0,0,1,1.22.23l6.91,4.11L31,12.29A2.43,2.43,0,0,1,32.48,11.48Z"/></g></g></svg>